{"title":"The Kings Speech 2010 XVID DVDSCR SAFCuk009+Fabreezy","uid":6109340,"size":1443257769,"categoryP":"video","categoryS":"movies","magnet":"?xt=urn:btih:5a9429da1a61a4e45917e389be849647b765ad7b&amp;dn=The+Kings+Speech+2010+XVID+DVDSCR+SAFCuk009%2BFabreezy&amp;tr=udp%3A%2F%2Ftracker.openbittorrent.com%3A80&amp;tr=udp%3A%2F%2Fopen.demonii.com%3A1337&amp;tr=udp%3A%2F%2Ftracker.coppersurfer.tk%3A6969&amp;tr=udp%3A%2F%2Fexodus.desync.com%3A6969","seeders":1,"leechers":0,"uploader":"SAFCukO09","files":3,"time":1295289238,"description":"Format : AVI\nFormat/Info : Audio Video Interleave\nFile size : 1.34 GiB\nDuration : 1h 55mn\nOverall bit rate : 1 656 Kbps\nWriting library : VirtualDub build 32839/release\n\nVideo\nID : 0\nFormat : MPEG-4 Visual\nFormat profile : Advanced Simple@L5\nFormat settings, BVOP : Yes\nFormat settings, QPel : No\nFormat settings, GMC : No warppoints\nFormat settings, Matrix : Custom\nCodec ID : XVID\nCodec ID/Hint : XviD\nDuration : 1h 55mn\nBit rate : 1 197 Kbps\nWidth : 720 pixels\nHeight : 400 pixels\nDisplay aspect ratio : 16:9\nFrame rate : 29.970 fps\nColor space : YUV\nChroma subsampling : 4:2:0\nBit depth : 8 bits\nScan type : Progressive\nBits/(Pixel*Frame) : 0.139\nStream size : 988 MiB (72%)\nWriting library : XviD 1.2.1 (UTC 2008-12-04)\n\nAudio\nID : 1\nFormat : AC-3\nFormat/Info : Audio Coding 3\nMode extension : CM (complete main)\nCodec ID : 2000\nDuration : 1h 55mn\nBit rate mode : Constant\nBit rate : 448 Kbps\nChannel(s) : 6 channels\nChannel positions : Front: L C R, Side: L R, LFE\nSampling rate : 48.0 KHz\nBit depth : 16 bits\nStream size : 370 MiB (27%)\nAlignment : Aligned on interleaves\nInterleave, duration : 33 ms (1.00 video frame)\nInterleave, preload duration : 512 ms\n\n\n\n &lt;a href=&quot;\nhttp://www.imdb.com/title/tt1504320/&quot; rel=&quot;nofollow&quot; target=&quot;_NEW&quot;&gt;\nhttp://www.imdb.com/title/tt1504320/&lt;/a&gt;\n\n\n\n\nUsers: 8.6/10 (7,722 votes) 132 reviews | Critics: 153 reviews Metascore: 88/100 (based on 39 reviews from Metacritic.com)\n\nThe story of King George VI of Britain, his impromptu ascension to the throne and the speech therapist who helped the unsure monarch become worthy of it.\nDirector:\nTom Hooper\nWriter:\nDavid Seidler (screenplay)\nStars:\nColin Firth, Geoffrey Rush and Helena Bonham Carter\n\n\n\n\n\n\nVideo source - Demedic ( Thanks )\nAudio source - Demedic ( Thanks ) Good work bro\n\nProperty of watermark comes on now and again as shown in screenshot,nothing major .Enjoy if your not already sick of this\n\n\n\nGreetz to Imagine ,Flawl3ss ,Santi ,Vision ,Kingdom,BDK,DiGiTALiNK,LEGION,Classified,THC,WBZ,Rx ,Feel Free and to all who share","torrent":{"xt":"urn:btih:5a9429da1a61a4e45917e389be849647b765ad7b","amp;dn":"The+Kings+Speech+2010+XVID+DVDSCR+SAFCuk009%2BFabreezy","amp;tr":["udp%3A%2F%2Ftracker.openbittorrent.com%3A80","udp%3A%2F%2Fopen.demonii.com%3A1337","udp%3A%2F%2Ftracker.coppersurfer.tk%3A6969","udp%3A%2F%2Fexodus.desync.com%3A6969"],"infoHash":"5a9429da1a61a4e45917e389be849647b765ad7b","infoHashBuffer":{"type":"Buffer","data":[90,148,41,218,26,97,164,228,89,23,227,137,190,132,150,71,183,101,173,123]},"announce":[],"urlList":[]}}